# xmcd
#
# Track frame offsets: 
#        150
#        16160
#        34165
#        52392
#        69982
#        88905
#        113332
#        131927
#        157450
#
# Disc length: 2416 seconds
#
# Revision: 3
# Processed by: cddbd v1.5.2PL0 Copyright (c) Steve Scherf et al.
# Submitted via: ExactAudioCopy v0.99pb4
#
DISCID=7f096e09
DTITLE=DURAN DURAN - Duran Duran(Japan CP-21 6046)
DYEAR=1981
DGENRE=Rock
TTITLE0=Girls On Film
TTITLE1=Planet Earth
TTITLE2=Anyone Out There
TTITLE3=Careless Memories
TTITLE4=Is There Something I Should Know?
TTITLE5=Night Boat
TTITLE6=Sound Of Thunder
TTITLE7=Friends Of Mine
TTITLE8=Tel Aviv
EXTD=YEAR: 1981\nCP-21 6046 Pastmasters
EXTT0=S. Le Bon, N. Rhodes, J. Taylor, R. Taylor, A. Taylor
EXTT1=S. Le Bon, N. Rhodes, J. Taylor, R. Taylor, A. Taylor
EXTT2=S. Le Bon, N. Rhodes, J. Taylor, R. Taylor, A. Taylor
EXTT3=S. Le Bon, N. Rhodes, J. Taylor, R. Taylor, A. Taylor
EXTT4=S. Le Bon, N. Rhodes, J. Taylor, R. Taylor, A. Taylor
EXTT5=S. Le Bon, N. Rhodes, J. Taylor, R. Taylor, A. Taylor
EXTT6=S. Le Bon, N. Rhodes, J. Taylor, R. Taylor, A. Taylor
EXTT7=S. Le Bon, N. Rhodes, J. Taylor, R. Taylor, A. Taylor
EXTT8=S. Le Bon, N. Rhodes, J. Taylor, R. Taylor, A. Taylor
PLAYORDER=
